<?xml version="1.0" encoding="UTF-8"?>
<svg id="Layer_1" data-name="Layer 1" xmlns="http://www.w3.org/2000/svg" version="1.1" viewBox="0 0 80 45">
  <defs>
    <style>
      .cls-1 {
        fill: #96c;
        stroke-width: 0px;
      }
    </style>
  </defs>
  <path class="cls-1" d="M2.8.6v43.2H0V.6h2.8Z"/>
  <path class="cls-1" d="M31.6,7.9c-2.7-5.2-7.3-5.3-8.5-5.3-5.1,0-8,3.7-8,8s3.2,6.2,7.6,8.3c4.3,2.1,6.4,3,8.6,4.5,1.9,1.3,4.6,3.6,4.6,8.3,0,7.2-6.1,12.6-13.5,12.6s-8.4-2.7-10-4.5c-1.2-1.4-2.2-3-2.8-4.7l2.5-1.2c.6,1.5,1.3,2.9,2.3,4.1,1.9,2.5,5.1,3.7,8.1,3.7,5.8,0,10.4-4.3,10.4-10s-.9-4.8-4.2-6.8c-1.2-.7-3.8-2-7.3-3.8-4.3-2.1-6.4-3.2-7.9-5.7-.9-1.5-1.4-3.2-1.4-4.9,0-5,3.4-10.7,11.1-10.7s8.3,2.1,10.5,6.1l-2.1,1.7Z"/>
  <path class="cls-1" d="M80,.6v43.2h-2.8V.6h2.8Z"/>
  <path class="cls-1" d="M70.1,40.5c0-.6-.4-1.3-.8-1.8-.4-.5-.9-.9-1.5-1.1.1-5.1,0-10.3,0-10.6,0-1.8-.9-2.7-2.6-2.7h-8.9c0,0,0-2.6,0-2.6h8.7c1.6,0,3-1.5,3-3.4V.5h-4s0,0,0,0c-.4,0-.7.1-1,.4-.3.3-.4.6-.4,1,0,.4.1.7.4,1,.3.3.6.4.9.4h1.3v15c0,.4-.2.6-.3.7h-19.6c0,0-.3-.3-.3-.7V3.2h1.3c.2,0,.4,0,.5,0,.2,0,.3-.2.4-.3s.2-.3.3-.4.1-.3.1-.5,0-.4-.1-.5c0-.2-.2-.3-.3-.4-.1-.1-.3-.2-.4-.3s-.3-.1-.5,0h-4v17.8c0,1.9,1.3,3.4,3,3.4h8.4v3.3c0,.2,0,.5.1.7,0,.2.2.4.4.6.2.2.4.3.6.4.2,0,.5.1.7.1h9.5c0,0,0,0,0,0,0,0,0,.2,0,.3h0c0,0,.1,5.4,0,10.5-.7.2-1.3.6-1.7,1.1-.5.5-.7,1.2-.8,1.9,0,.7,0,1.4.3,2,.3.6.8,1.2,1.4,1.5.6.4,1.3.6,2,.6.7,0,1.4-.2,2-.6.6-.4,1.1-.9,1.3-1.6.3-.6.4-1.3.3-2h0ZM66.6,42.6c-.3,0-.6,0-.9-.1-.3-.1-.5-.3-.7-.6-.2-.3-.2-.6-.2-.9,0-.3.1-.6.3-.9.2-.2.4-.4.7-.5.3-.1.6-.1.9,0,.3,0,.6.2.8.5.2.2.3.5.4.8,0,.4,0,.8-.3,1.2-.2.3-.6.6-1,.6h0Z"/>
  <path class="cls-1" d="M45.2,44h-2.7v-19.7h2.7v19.7Z"/>
</svg>